<svg width="229" height="230" viewBox="0 0 229 230" fill="none" xmlns="http://www.w3.org/2000/svg">
<path d="M132.167 160.626C134.266 161.195 136.382 161.73 138.551 162.188C139.638 162.415 140.733 162.628 141.87 162.793L142.722 162.917L143.605 163.01C144.177 163.084 144.828 163.095 145.443 163.128C146.135 163.165 146.816 162.944 147.356 162.508C147.897 162.072 148.257 161.45 148.37 160.763L148.383 160.679C149.853 151.635 150.029 142.427 148.905 133.333L148.441 129.927C148.256 128.797 147.992 127.679 147.771 126.554L147.423 124.87L147.249 124.028C147.191 123.748 147.101 123.475 147.028 123.197L146.104 119.883C145.945 119.332 145.806 118.776 145.631 118.23L145.056 116.608L143.905 113.366C143.486 112.299 143.002 111.257 142.553 110.202C142.082 109.157 141.677 108.081 141.117 107.078L139.024 103.063L136.665 99.1959C136.289 98.5401 135.838 97.9331 135.403 97.3161L134.095 95.4675L133.44 94.5436L133.113 94.0818L132.756 93.6426L131.328 91.8866L129.899 90.1316C129.414 89.5552 128.881 89.0204 128.374 88.463L126.834 86.8074L126.064 85.9808L125.243 85.2053C124.143 84.1783 123.069 83.1227 121.949 82.1204L118.483 79.24C106.48 69.713 91.8363 63.7904 76.7624 61.6718C69.2113 60.6169 61.5619 60.471 53.9764 61.2373C46.4017 62.0096 38.9343 63.6144 31.7081 66.0229L34.0136 66.332L33.464 65.961L34.2253 69.5866C39.1416 61.8671 44.0644 53.9512 47.9673 45.4198C49.9311 41.1564 51.6236 36.7721 53.0346 32.2935C54.4354 27.814 55.5685 23.2544 56.4277 18.6392L54.2903 20.8387C60.9926 19.4347 67.7939 18.5585 74.632 18.2181C78.0435 18.0543 81.4563 18.0767 84.8613 18.2082C88.262 18.3968 91.6568 18.6889 95.0203 19.1936C109.655 21.3372 123.776 26.9837 135.526 35.963C141.423 40.4359 146.732 45.6431 151.323 51.4594C155.93 57.2895 159.853 63.6328 163.016 70.364C169.392 83.8303 172.826 98.6603 173.719 113.605C174.522 128.631 172.987 143.691 169.169 158.242L169.165 158.257C169.049 158.708 169.054 159.182 169.181 159.63C169.309 160.078 169.552 160.484 169.888 160.805C170.224 161.127 170.639 161.353 171.09 161.459C171.542 161.566 172.013 161.55 172.457 161.412C177.023 159.934 181.472 158.113 185.767 155.966C190.031 153.888 194.176 151.642 198.27 149.334L194.719 145.84C193.24 148.616 191.75 151.385 190.248 154.149C188.741 156.909 187.222 159.663 185.691 162.411C180.06 172.491 174.341 182.653 168.56 192.489C165.787 197.197 163.578 201.122 161.844 204.384C160.983 206.019 160.227 207.48 159.596 208.799C159.283 209.455 158.965 210.109 158.79 210.575C158.588 211.084 158.412 211.596 158.226 212.112C157.135 215.212 156.362 216.015 158.684 214.004C159.459 213.289 160.174 212.512 160.823 211.68C161.153 211.254 161.51 210.793 161.892 210.298L163.033 208.77C164.629 206.593 166.515 203.853 168.631 200.585C173.994 192.319 179.524 183.072 184.546 174.205C189.446 165.548 194.215 156.832 198.853 148.06L198.858 148.05C199.118 147.557 199.173 146.98 199.011 146.446C198.848 145.912 198.481 145.465 197.99 145.203C197.678 145.039 197.331 144.956 196.98 144.96C196.628 144.965 196.283 145.057 195.976 145.229C191.937 147.518 187.865 149.731 183.729 151.75C179.654 153.793 175.432 155.524 171.098 156.927L173.686 159.422C177.142 145.936 179.01 132 178.737 118.035C178.485 104.086 176.174 90.1045 171.422 76.8838C170.882 75.3265 170.26 73.7906 169.65 72.2432C169.339 71.4723 168.997 70.7118 168.671 69.9437L168.175 68.7937L167.644 67.6575C166.242 64.6097 164.686 61.6361 162.981 58.7485C161.296 55.8675 159.453 53.0828 157.46 50.4071C155.516 47.7744 153.419 45.2592 151.18 42.8744C138.946 29.7435 123.206 20.4287 105.841 16.0431C101.538 14.9441 97.1678 14.1295 92.7588 13.6044C88.3577 13.0926 83.9302 12.8436 79.4997 12.8587C75.0797 12.8656 70.6634 13.118 66.2712 13.6149C61.8863 14.1157 57.5336 14.8312 53.2232 15.7245C52.7463 15.8233 52.3096 16.0629 51.9691 16.4125C51.6285 16.762 51.3996 17.2058 51.3117 17.6868V17.6918C50.3715 22.904 49.0596 28.0416 47.3864 33.065L46.6225 35.2979C46.3562 36.0382 46.0672 36.7705 45.7906 37.5075L45.3714 38.6115L44.9184 39.703L44.0041 41.8834C42.7309 44.7703 41.3406 47.6121 39.8592 50.4175C38.3558 53.2136 36.7772 55.9811 35.1235 58.72C33.4651 61.4585 31.7601 64.1843 30.0357 66.9137C29.7112 67.4285 29.5996 68.0502 29.7248 68.6464C29.8499 69.2426 30.202 69.7661 30.7058 70.1055L31.2565 70.4749C31.5524 70.6717 31.8889 70.7985 32.2407 70.8456C32.5925 70.8928 32.9503 70.8591 33.2872 70.7472C41.024 68.1264 49.0587 66.4948 57.2015 65.8911C65.3321 65.288 73.5065 65.7799 81.5073 67.3535C82.7821 67.5539 84.0254 67.8955 85.2759 68.2052L87.1513 68.6726C87.463 68.7535 87.7785 68.8213 88.0872 68.9128L89.0081 69.2048L92.6933 70.3701C93.9054 70.8044 95.0987 71.2914 96.3031 71.7484C96.8997 71.9903 97.5148 72.19 98.0967 72.466L99.8513 73.2747L101.607 74.0824C101.898 74.219 102.195 74.3467 102.482 74.4906L103.332 74.9499L106.734 76.7845C107.837 77.4473 108.92 78.1456 110.016 78.8234C111.129 79.4758 112.156 80.2551 113.204 81.0047C114.244 81.765 115.321 82.4769 116.291 83.3266L119.272 85.7869L122.088 88.4355L122.793 89.0972C123.024 89.3215 123.235 89.566 123.457 89.7994L124.773 91.215L126.091 92.6299C126.532 93.0999 126.913 93.6228 127.327 94.1165C128.129 95.1251 128.974 96.1014 129.744 97.1353L131.973 100.298C132.155 100.564 132.354 100.819 132.523 101.094L133.024 101.922L134.028 103.576L135.033 105.231C135.346 105.795 135.629 106.376 135.929 106.947L136.817 108.668L137.262 109.529L137.483 109.959L137.675 110.404L139.21 113.963C139.334 114.261 139.474 114.554 139.586 114.856L139.907 115.771L140.55 117.601L141.193 119.431C141.41 120.041 141.549 120.675 141.73 121.296L142.756 125.041L143.527 128.85L143.72 129.802C143.792 130.118 143.847 130.438 143.884 130.76L144.139 132.688L144.395 134.617C144.475 135.261 144.586 135.901 144.608 136.551C144.759 139.143 145.013 141.731 144.931 144.334C145.029 149.539 144.414 154.731 143.701 159.892L145.54 158.36C143.502 158.241 141.478 157.95 139.49 157.488C137.43 157.046 135.366 156.517 133.309 155.951C129.194 154.815 125.099 153.525 121.025 152.169C120.668 152.05 120.283 152.052 119.927 152.173C119.571 152.294 119.264 152.529 119.053 152.842C118.842 153.154 118.739 153.527 118.758 153.904C118.777 154.281 118.918 154.641 119.16 154.93L119.186 154.962C120.546 156.58 121.961 158.148 123.236 159.845C129.702 168.073 134.964 176.906 139.93 185.413C144.869 193.943 149.503 202.22 154.312 209.734C154.854 210.598 155.355 211.358 155.766 211.925C156.175 212.501 156.476 212.93 156.691 213.248C157.119 213.882 157.232 214.05 157.191 213.743C157.173 213.643 157.128 213.38 157.052 212.946C156.99 212.578 156.943 212.114 156.884 211.647C156.856 211.408 156.809 211.171 156.744 210.939C156.647 210.629 156.522 210.329 156.37 210.043C156.172 209.636 155.959 209.198 155.731 208.729L155.367 208.007C155.304 207.883 155.239 207.758 155.173 207.63L155.124 207.535C155.149 207.479 155.104 207.463 155.098 207.425L155.003 207.226C154.292 205.708 153.594 204.169 152.89 202.625C152.179 201.079 151.397 199.568 150.652 198.02C149.138 194.94 147.632 191.817 146.048 188.699C142.884 182.468 139.578 176.186 135.888 170.093C132.03 163.63 127.61 157.523 122.68 151.842L119.534 156.619C123.682 158.007 127.858 159.327 132.089 160.514C132.113 160.553 132.139 160.59 132.167 160.626Z" fill="#1e293b"/>
</svg>
