<svg width="318" height="257" viewBox="0 0 318 257" fill="none" xmlns="http://www.w3.org/2000/svg">
<path d="M29.71 257C25.7596 257 21.8295 256.688 17.9401 256.072C11.3944 255.029 3.03951 252.258 0.390076 245.004L2.93788 244.076C5.14009 250.091 12.5463 252.468 18.3737 253.396C32.3663 255.632 46.9822 253.661 60.6495 247.7C74.3168 241.732 85.7005 232.357 93.5675 220.577C94.5229 219.155 95.4852 217.577 96.4067 215.89C96.2305 215.822 96.0543 215.748 95.8782 215.673C88.167 212.476 79.1075 205.174 78.9448 195.135C78.8635 189.906 82.4954 184.561 87.7875 182.136C91.9819 180.213 96.2915 180.66 99.3204 183.335C101.38 185.157 102.824 187.887 103.63 191.437C105.48 199.64 103.372 207.694 100.222 214.359C118.009 219.893 143.825 214.339 161.802 192.324C167.074 185.869 171.235 178.702 174.548 171.251C162.419 162.824 151.035 149.812 141.176 132.857C133.384 120.102 126.113 106.216 125.754 91.2526C125.571 83.5306 127.685 75.7001 131.723 69.2109C136.053 62.2407 142.314 57.4787 149.348 55.8056C165.292 51.9987 180.958 64.2524 186.901 78.2944C192.931 92.5464 191.752 108.715 189.584 124.058C187.592 138.147 184.495 154.709 177.936 170.269C185.681 175.315 193.704 178.411 201.781 179.379C219.331 181.493 236.651 173.811 253.265 156.559C268.701 140.315 279.265 119.194 282.992 97.0916C283.053 96.7326 283.114 96.3668 283.175 95.9875C281.637 96.4143 280.058 96.7394 278.445 96.9562C268.511 98.1484 258.903 93.9147 254.505 86.4365C251.985 82.1487 251.51 76.601 253.238 71.6019C254.756 67.2193 257.717 63.968 261.586 62.4439C270.3 59.0231 279.8 65.0518 283.609 72.591C286.773 78.8499 286.976 86.003 286.407 92.0249C293.237 89.1663 299.038 83.9302 303.72 76.391C309.005 67.8832 312.596 56.632 313.823 44.7237C316.33 25.9603 314.223 12.0132 307.372 2.04894L309.608 0.518066C316.852 11.0648 319.108 25.6284 316.513 45.0488C315.246 57.3161 311.519 68.9738 306.017 77.8271C300.793 86.2401 293.976 92.0926 286.041 95.0595C285.919 95.9265 285.79 96.7598 285.655 97.5523C281.84 120.177 271.025 141.805 255.217 158.435C237.979 176.338 219.893 184.29 201.449 182.069C193.094 181.066 184.814 177.91 176.832 172.775C173.457 180.274 169.236 187.494 163.896 194.031C149.416 211.765 122.894 224.784 98.9748 216.818C97.9584 218.721 96.881 220.483 95.8171 222.068C87.6588 234.281 75.8753 243.994 61.7337 250.172C51.3799 254.69 40.4975 256.993 29.7168 256.993L29.71 257ZM92.917 183.647C91.6431 183.647 90.2879 183.958 88.9124 184.588C85.2465 186.275 81.5739 190.421 81.6485 195.088C81.784 203.819 89.9559 210.281 96.9081 213.167C97.1453 213.269 97.3892 213.363 97.6331 213.458C100.642 207.186 102.681 199.626 100.967 192.026C100.296 189.039 99.1307 186.79 97.5044 185.354C96.2238 184.216 94.6381 183.64 92.9103 183.64L92.917 183.647ZM154.972 57.8716C153.237 57.8716 151.557 58.0612 149.965 58.4406C139.218 61.0078 128.024 73.3564 128.451 91.1849C128.796 105.511 135.884 119.012 143.493 131.469C153.048 147.888 164.005 160.508 175.625 168.711C181.927 153.565 184.936 137.429 186.88 123.672C188.995 108.715 190.153 92.9868 184.387 79.3376C178.356 65.0856 165.671 57.858 154.972 57.858V57.8716ZM266.689 64.2118C265.3 64.2118 263.904 64.4557 262.555 64.984C259.438 66.2101 257.033 68.8789 255.779 72.5029C254.329 76.6959 254.729 81.5187 256.823 85.075C260.678 91.6388 269.223 95.3373 278.079 94.2806C279.963 94.0232 281.793 93.6235 283.554 93.0681C284.239 87.1749 284.266 79.9472 281.176 73.8238C278.513 68.5538 272.591 64.205 266.689 64.205V64.2118Z" fill="#f8fafc"/>
</svg>
