<svg width="77" height="48" viewBox="0 0 77 48" fill="none" xmlns="http://www.w3.org/2000/svg">
<path d="M23.9281 47.1378C23.8603 47.1378 23.7994 47.1378 23.7316 47.1242C22.993 47.0158 22.478 46.3317 22.5864 45.5866C23.7858 37.3022 30.2772 30.0272 38.3746 27.8935C41.2341 27.1416 43.7209 27.1958 45.7605 28.0628C47.0141 28.598 48.0712 29.4244 48.8504 30.0882C52.5705 33.2651 55.4096 37.3768 57.063 41.9761C57.3137 42.6806 56.9478 43.4596 56.2498 43.7102C55.5451 43.9609 54.7659 43.5951 54.5152 42.8974C53.0177 38.7383 50.4495 35.0195 47.0886 32.1474C46.4178 31.5784 45.6115 30.9417 44.7035 30.5556C43.2263 29.9324 41.329 29.9121 39.0658 30.5082C31.9916 32.3709 26.3132 38.7247 25.2697 45.9659C25.1749 46.6433 24.5921 47.1242 23.9281 47.1242V47.1378Z" fill="#f8fafc"/>
<path d="M12.5037 45.4714C11.7854 45.4714 11.1891 44.9092 11.1485 44.1844C10.8368 37.7154 14.5771 32.0458 18.2836 27.3516C21.2244 23.626 24.87 19.4601 29.6064 16.8184C35.0679 13.7769 41.6542 12.9912 47.6781 14.6643C53.702 16.3374 58.9399 20.4085 62.0434 25.8343C64.0829 29.3973 65.1332 33.3531 66.1496 37.1803C66.6443 39.0431 67.1593 40.9736 67.7691 42.7958C68.0063 43.507 67.6268 44.2725 66.9153 44.5095C66.2039 44.7466 65.4382 44.3673 65.201 43.656C64.5573 41.7458 64.0355 39.7747 63.5273 37.8712C62.5109 34.0441 61.5487 30.4269 59.6853 27.1755C56.9342 22.3661 52.2859 18.7557 46.9463 17.2722C41.6068 15.7888 35.7658 16.4865 30.921 19.1824C26.5979 21.5871 23.1827 25.5091 20.4113 29.0247C17.0233 33.326 13.5946 38.4673 13.8589 44.0489C13.8928 44.794 13.3168 45.4308 12.5714 45.4646C12.5511 45.4646 12.5308 45.4646 12.5037 45.4646V45.4714Z" fill="#f8fafc"/>
<path d="M1.84497 46.1488C1.79076 46.1488 1.7433 46.1488 1.68909 46.142C0.943728 46.0539 0.41519 45.3833 0.496502 44.6382C2.5903 26.5049 12.7476 10.8845 27.0044 3.8737C30.3247 2.24122 33.3739 1.29967 36.335 0.988075C42.5554 0.344567 48.62 2.48508 53.9663 4.38173C56.8394 5.3978 60.0919 6.54934 62.6464 8.79145C64.4963 10.4172 65.804 12.429 66.9424 14.373C72.3294 23.565 75.5074 34.0441 76.1308 44.6789C76.1714 45.424 75.6022 46.0675 74.8569 46.1081C74.1047 46.1556 73.4678 45.5798 73.4271 44.8347C72.824 34.6266 69.7748 24.5608 64.6047 15.7413C63.5815 14.0005 62.4228 12.1987 60.8643 10.8304C58.7028 8.9337 55.8365 7.91764 53.0651 6.93544C47.9898 5.13362 42.2302 3.09472 36.6196 3.68403C33.9837 3.96176 31.2259 4.81525 28.2038 6.30548C14.7669 12.9167 5.18556 27.7241 3.1934 44.9498C3.11208 45.6407 2.52932 46.1488 1.85171 46.1488H1.84497Z" fill="#f8fafc"/>
</svg>
