<svg width="234" height="17" viewBox="0 0 234 17" fill="none" xmlns="http://www.w3.org/2000/svg">
<path d="M42.7492 16.0874C42.1191 16.0874 41.5566 15.6471 41.4211 15.0036C41.272 14.2856 41.726 13.5811 42.4375 13.4118C63.694 8.39241 85.4722 4.84293 107.542 2.79725C72.1437 3.02756 36.705 5.61509 1.75415 10.5396C1.00878 10.648 0.331172 10.1265 0.222755 9.38811C0.121115 8.64977 0.636103 7.95884 1.37469 7.85724C49.0035 1.14443 97.5471 -1.2467 145.65 0.75156C146.382 0.778655 146.958 1.38831 146.951 2.11987C146.944 2.85144 146.348 3.44751 145.616 3.45429C130.824 3.67105 116.093 4.56522 101.498 6.11641C145.372 2.83791 189.796 4.15875 232.438 10.1332C233.177 10.2348 233.698 10.919 233.59 11.6641C233.481 12.4092 232.804 12.9241 232.058 12.8157C170.41 4.17913 105.028 5.29674 42.9796 16.0603C42.8983 16.0738 42.8238 16.0806 42.7492 16.0806V16.0874Z" fill="#1E293B"/>
</svg>
