<svg width="247" height="13" viewBox="0 0 247 13" fill="none" xmlns="http://www.w3.org/2000/svg">
<path d="M27.884 12.7243C27.1861 12.7243 26.5898 12.1892 26.5356 11.4779C26.4746 10.7328 27.0303 10.0758 27.7757 10.0148C69.6923 6.57372 112.083 4.73802 154.528 4.52803C135.027 4.10806 115.614 3.94549 96.4509 3.77614C65.254 3.51197 32.9932 3.23425 1.75562 6.38405C1.00348 6.45856 0.346158 5.91665 0.271622 5.17154C0.197085 4.42642 0.739196 3.76259 1.48456 3.68808C32.8712 0.517959 65.2066 0.795687 96.478 1.06664C145.442 1.48661 196.072 1.92013 245.632 6.56016C246.364 6.6279 246.913 7.27141 246.859 8.00298C246.805 8.73455 246.168 9.28999 245.443 9.25612C172.946 5.65248 99.7847 6.81757 27.9992 12.7107C27.9586 12.7107 27.9247 12.7107 27.884 12.7107V12.7243Z" fill="#DB2777"/>
</svg>
