<svg width="250" height="24" viewBox="0 0 250 24" fill="none" xmlns="http://www.w3.org/2000/svg">
<path d="M3.27972 9.80425C2.56146 9.80425 1.96517 9.24203 1.92451 8.51723C1.88386 7.77212 2.45984 7.13538 3.21198 7.09474C78.4329 3.36239 154.752 1.02546 230.061 0.144868C230.813 0.104226 231.423 0.734173 231.429 1.48606C231.436 2.23118 230.84 2.8476 230.088 2.85438C154.813 3.73496 78.5278 6.0719 3.34077 9.80425C3.32044 9.80425 3.29327 9.80425 3.27294 9.80425H3.27972Z" fill="#1E293B"/>
<path d="M11.7564 16.9303C11.0449 16.9303 10.4487 16.3748 10.4012 15.6568C10.3606 14.9117 10.9298 14.2681 11.6751 14.2275C90.0266 9.63489 169.544 8.05661 248.017 9.53329C248.762 9.54684 249.359 10.1633 249.345 10.9151C249.331 11.6535 248.728 12.2428 247.99 12.2428C247.983 12.2428 247.969 12.2428 247.963 12.2428C169.557 10.7661 90.1078 12.3444 11.831 16.937C11.8039 16.937 11.7768 16.937 11.7496 16.937L11.7564 16.9303Z" fill="#1E293B"/>
<path d="M1.35526 23.5956C0.630226 23.5956 0.0271581 23.0266 5.39053e-05 22.2951C-0.0270503 21.55 0.55572 20.92 1.30108 20.8861C69.9831 18.2037 139.648 17.6279 208.364 19.1791C209.109 19.1927 209.705 19.8159 209.685 20.561C209.671 21.2993 209.061 21.8819 208.33 21.8819C208.316 21.8819 208.309 21.8819 208.296 21.8819C139.634 20.3307 70.0305 20.8997 1.40274 23.5889C1.38241 23.5889 1.36881 23.5889 1.34848 23.5889L1.35526 23.5956Z" fill="#1E293B"/>
</svg>
