<svg width="230" height="228" viewBox="0 0 230 228" fill="none" xmlns="http://www.w3.org/2000/svg">
<path d="M126.412 72.719L120.075 79.4176C119.009 80.5237 117.98 81.6649 116.951 82.8057L113.853 86.2182C112.761 87.427 111.647 88.6203 110.562 89.84C109.483 91.064 108.394 92.2784 107.285 93.4693C105.809 95.0618 104.314 96.6376 102.85 98.2409L98.5119 103.099C95.5848 106.309 92.8019 109.642 89.9777 112.942L87.869 115.425L85.8154 117.953L81.7132 123.014L80.6912 124.282L79.6976 125.573L77.7122 128.155L73.7548 133.331L69.0463 139.827C68.2666 140.913 67.4705 141.988 66.7054 143.084L64.4338 146.39C62.9285 148.6 61.3897 150.788 59.9161 153.019L55.5419 159.742C49.8019 168.764 44.2719 177.922 39.1567 187.306C38.3757 188.716 37.6375 190.158 36.9257 191.608C36.2378 193.071 35.5914 194.549 34.9452 196.005C33.7131 198.799 33.4318 200.868 33.6957 202.365C34.0813 204.543 36.2104 203.611 38.5173 199.992C39.2479 198.846 39.959 197.62 40.642 196.366C41.3106 195.105 41.9846 193.834 42.6399 192.598C48.4989 181.139 55.2097 170.128 62.7166 159.656C63.7494 158.212 64.8032 156.74 65.8499 155.277C66.9116 153.825 67.9314 152.36 68.829 150.885C71.652 146.142 74.9031 141.66 78.1317 137.165C79.7839 134.944 81.4778 132.753 83.1392 130.54C83.9767 129.438 84.7922 128.321 85.6362 127.225L88.1643 123.937C89.4049 122.3 90.6583 120.67 91.9245 119.046C93.2058 117.434 94.5304 115.855 95.8382 114.262L99.783 109.498L103.808 104.804C113.346 93.6269 123.342 82.8262 133.84 72.5086C134.888 71.4808 135.903 70.4499 136.883 69.4159C137.377 68.9033 137.842 68.3694 138.302 67.8409C138.773 67.3228 139.235 66.8053 139.688 66.2881C141.497 64.2182 143.15 62.1486 144.626 60.1002C145.979 58.2124 145.142 57.501 142.95 59.0286C141.403 60.1131 139.831 61.2426 138.256 62.4015C136.691 63.5709 135.07 64.7158 133.597 66.0099C131.172 68.1367 128.847 70.4928 126.498 72.7636L126.412 72.719Z" fill="#1e293b"/>
<path d="M149.248 58.3535C137.225 76.3376 133.181 91.5699 130.848 113.021C147.31 76.3884 167.238 52.9228 196.001 24.7234C165.98 40.2126 142.372 44.201 108.667 47.2515C120.815 55.0749 134.553 57.4538 149.006 58.4337" fill="#1e293b"/>
<path d="M113.518 46.2496L112.739 45.8409C112.482 45.7007 112.233 45.5465 111.98 45.4002L110.463 44.5118L108.967 50.5051C117.78 49.5491 126.61 48.4652 135.42 47.0043C138.087 46.5873 140.749 46.0618 143.414 45.577L147.401 44.7694C148.732 44.5165 150.054 44.2194 151.377 43.9283C159.383 42.2179 167.264 39.9756 174.967 37.2167C182.654 34.4297 190.16 31.1728 197.441 27.4649L193.809 22.5256C189.364 26.8451 184.923 31.175 180.601 35.6443C178.418 37.8537 176.298 40.1334 174.163 42.3965C173.093 43.526 172.063 44.6967 171.012 45.8458C169.968 47.0023 168.91 48.1455 167.898 49.3332L164.855 52.8413C163.848 54.018 162.873 55.2238 161.881 56.4142L160.4 58.2056C159.91 58.8062 159.438 59.4223 158.957 60.0301L156.083 63.6899L153.306 67.4272C152.847 68.0526 152.374 68.6681 151.926 69.3019L150.59 71.2096C149.706 72.486 148.796 73.7442 147.935 75.0362L145.376 78.929C144.507 80.2161 143.717 81.5532 142.898 82.8719L141.678 84.8552C141.269 85.5151 140.862 86.1763 140.483 86.8531C138.939 89.5451 137.361 92.2192 135.93 94.9699C132.952 100.414 130.307 106.018 127.718 111.638L134.254 113.384C134.808 108.267 135.487 103.188 136.448 98.1981C137.381 93.2324 138.663 88.3376 140.286 83.5496C141.898 78.7251 143.794 73.9982 145.963 69.3931C146.502 68.3075 146.957 67.2962 147.339 66.3527C147.748 65.4225 148.088 64.5627 148.356 63.7624C148.491 63.363 148.606 62.9769 148.712 62.6096C148.824 62.2457 148.92 61.8963 149 61.5613C149.149 60.9548 149.252 60.3381 149.308 59.7163C149.444 58.0821 148.781 57.6338 147.541 58.3423C146.703 58.8756 145.943 59.5214 145.283 60.2613C144.255 61.4153 143.317 62.6447 142.476 63.939C139.874 67.9766 137.71 72.2765 136.023 76.7666C133.847 82.5728 132.141 88.5414 130.92 94.616C129.695 100.647 128.845 106.699 128.145 112.731C128.071 113.368 128.229 114.01 128.59 114.542C128.951 115.074 129.492 115.461 130.115 115.633C130.738 115.804 131.402 115.75 131.989 115.48C132.575 115.209 133.045 114.74 133.313 114.157L133.331 114.117C137.091 105.872 141.379 97.8733 146.168 90.1701C146.537 89.549 146.932 88.9389 147.335 88.3314L148.537 86.4975L149.738 84.656L150.336 83.7341L150.958 82.8279C151.784 81.6191 152.597 80.4087 153.384 79.1994C153.58 78.8963 153.776 78.5942 153.971 78.2929L154.573 77.4037C154.97 76.8112 155.359 76.2191 155.739 75.6276C160.669 68.0673 166.133 60.8637 172.092 54.071C178.022 47.2138 184.306 40.6366 190.607 34.0799C192.991 31.5678 195.461 29.1211 197.918 26.644L197.938 26.6245C198.392 26.1662 198.667 25.5622 198.713 24.921C198.759 24.2798 198.573 23.6432 198.189 23.1257C197.804 22.6081 197.246 22.2434 196.615 22.0969C195.983 21.9504 195.32 22.0318 194.743 22.3264C190.287 24.6046 185.79 26.832 181.174 28.7754C178.886 29.7977 176.547 30.6902 174.221 31.6159C173.061 32.0866 171.872 32.4781 170.7 32.915C169.523 33.3387 168.353 33.7847 167.16 34.1599L163.63 35.325C162.448 35.6965 161.254 36.034 160.067 36.3908L158.284 36.9195L156.484 37.3958L152.883 38.3401C148.054 39.5074 143.183 40.5334 138.269 41.3872C128.44 43.0976 118.476 44.243 108.484 45.2595L108.438 45.264C108.022 45.3063 107.63 45.4759 107.316 45.7493C107.003 46.0226 106.783 46.3862 106.687 46.7893C106.592 47.1924 106.625 47.615 106.783 47.9983C106.941 48.3816 107.216 48.7065 107.569 48.9279C111.273 51.2382 115.208 53.1633 119.311 54.6724C121.614 55.5201 123.97 56.2215 126.363 56.7724C128.656 57.308 130.977 57.7141 133.317 57.9889C137.654 58.496 142.031 58.5916 146.387 58.2744C148.281 58.1153 149.178 57.7581 149.072 57.3148C148.965 56.8847 147.859 56.3176 145.742 55.8864C139.624 54.9867 133.572 53.6866 127.626 51.9947C126.407 51.65 125.209 51.2391 123.993 50.8614C122.8 50.4319 121.586 50.0373 120.409 49.5573C119.212 49.1181 118.057 48.5869 116.893 48.079L115.182 47.2479C114.608 46.9783 114.067 46.6506 113.51 46.3542L113.518 46.2496Z" fill="#1e293b"/>
</svg>
