<svg width="509" height="550" viewBox="0 0 509 550" fill="none" xmlns="http://www.w3.org/2000/svg">
<path d="M0.325552 402.82C0.325552 468.099 111.932 436.214 177.099 436.214C242.265 436.214 240.998 381.551 240.998 316.272C240.998 250.993 122.516 213 57.3491 213C-7.81767 213 0.325552 337.541 0.325552 402.82Z" fill="#FCD34D"/>
<path d="M495.336 340.559C485.658 276.202 356.351 293.971 315.112 333.783C273.873 373.596 290.3 417.623 269.536 461.482C248.771 505.341 359.199 581.323 466.937 536.131C531.551 526.492 505.013 404.916 495.336 340.559Z" fill="#0EA5E9"/>
<path d="M398.399 87.437C398.399 249.747 415.634 286.747 213.634 196.247C155.134 158.747 115.134 99.747 155.134 44.3925C243.134 -30.753 258.016 12.2469 323.134 12.2469C388.252 12.2469 398.399 22.1624 398.399 87.437Z" fill="#DB2777"/>
</svg>
