<svg width="137" height="120" viewBox="0 0 137 120" fill="none" xmlns="http://www.w3.org/2000/svg">
<path d="M92.2628 43.7271C93.6722 44.1809 95.2646 44.4044 96.7282 44.1335C98.5713 43.7948 99.6283 42.2978 99.8926 40.5231C99.9468 40.1641 99.9739 39.7983 99.9739 39.4257C100.604 38.2945 100.272 36.8517 99.5606 35.7679C98.7339 34.5148 97.5888 33.3903 96.3081 32.6113C93.828 31.094 90.1825 30.9992 88.1294 33.3226C86.0695 35.6528 86.5099 39.209 88.5156 41.424C89.5117 42.5281 90.8669 43.2732 92.2695 43.7271H92.2628Z" fill="#F8FAFC"/>
<path d="M102.251 81.7889C101.241 79.5264 99.2489 77.6704 96.7214 77.3859C94.1194 77.0947 91.7478 78.7068 91.1244 81.2537C90.5146 83.7465 90.9211 86.7947 93.1843 88.3188C94.2008 89.0097 95.4814 89.2536 96.6943 89.3281C97.9886 89.4094 99.398 89.2807 100.523 88.5965C101.844 87.7972 102.61 86.3679 102.732 84.8438C102.793 84.0852 102.657 83.3468 102.4 82.6559C102.427 82.3714 102.379 82.0666 102.251 81.7821V81.7889Z" fill="#F8FAFC"/>
<path d="M85.7713 92.0714C83.4336 90.9673 80.3369 90.3712 78.4329 92.5863C77.6875 93.4601 77.2199 94.5439 77.0234 95.6751C76.8134 96.9282 76.7321 98.3101 77.2877 99.4887C77.8366 100.654 79.1105 101.622 80.1879 102.28C81.2517 102.937 82.5256 103.357 83.7927 103.235C85.3174 103.092 86.6861 102.354 87.6076 101.128C88.0481 100.545 88.3327 99.8884 88.4885 99.1975C88.8409 99.0349 89.1255 98.7301 89.2407 98.3372C90.0267 95.6412 88.1159 93.1688 85.7781 92.0647L85.7713 92.0714Z" fill="#F8FAFC"/>
<path d="M80.4589 64.1432C81.1569 63.432 81.6312 62.5513 81.9497 61.6166C82.1123 61.393 82.2139 61.1153 82.2478 60.8037C82.2614 60.7021 82.2478 60.6005 82.2478 60.5057C82.2614 60.4379 82.2817 60.3702 82.2885 60.3092C82.3562 59.9773 82.3088 59.6251 82.1665 59.327C81.848 57.5658 80.6758 55.9063 79.0834 55.1273C76.9354 54.0841 74.3673 54.5312 72.6123 56.1366C70.9318 57.6742 70.4711 60.2212 71.3316 62.3007C72.2599 64.5225 74.4486 65.9924 76.9015 65.7418C78.2296 65.6063 79.5035 65.1118 80.4521 64.1432H80.4589Z" fill="#F8FAFC"/>
<path d="M65.6329 76.0244C64.3726 76.5799 63.3562 77.6095 63.0919 78.9981C62.8615 80.2309 62.9903 81.545 63.3088 82.7508C63.6137 83.9159 64.1829 85.0403 65.1519 85.7854C66.236 86.6253 67.7539 86.815 69.0887 86.6795C70.6947 86.5237 72.1515 85.887 73.1272 84.5593C73.1611 84.5119 73.1882 84.4578 73.2289 84.4036C73.5406 84.3155 73.8116 84.1258 73.9472 83.8142C74.8958 81.5992 74.4757 79.1742 72.9308 77.3317C71.1351 75.1845 68.0791 74.9474 65.6397 76.0176L65.6329 76.0244Z" fill="#F8FAFC"/>
<path d="M113.682 39.1277C114.854 39.9947 116.297 40.4486 117.748 40.1979C119.082 39.9676 120.268 39.0803 121.007 37.9626C121.705 36.8991 121.942 35.5647 121.813 34.298C121.894 32.4217 120.966 30.525 119.238 29.5564C116.657 28.1 113.262 29.2448 111.514 31.5072C109.569 34.0203 111.5 37.5155 113.682 39.1277Z" fill="#F8FAFC"/>
<path d="M115.674 62.1518C115.871 61.9147 115.999 61.6099 116.033 61.2644C116.27 58.8936 115.125 56.2518 112.957 55.1206C110.606 53.8945 107.705 54.4229 106.147 56.6108C104.561 58.8394 105.124 61.8063 106.777 63.8181C108.173 65.5183 110.761 66.5344 112.903 65.7622C114.217 65.288 115.261 64.2178 115.579 62.8291C115.633 62.5988 115.66 62.3753 115.674 62.1518Z" fill="#F8FAFC"/>
<path d="M61.7773 51.544C63.1461 51.124 64.3523 50.2773 65.1586 49.0783C65.8701 48.0149 65.9243 46.6804 65.3212 45.6982C65.2806 44.7838 65.0434 43.8964 64.5691 43.07C63.905 41.9252 62.8886 41.065 61.6622 40.5705C59.2363 39.6018 56.3226 40.6721 54.8861 42.7787C53.558 44.7296 53.7748 47.6017 55.1707 49.4577C56.7089 51.5034 59.338 52.2891 61.7841 51.5372L61.7773 51.544Z" fill="#F8FAFC"/>
<path d="M50.6579 89.1114C50.563 88.7253 50.4817 88.2985 50.2378 87.9734C50.1429 87.8514 50.0345 87.7701 49.926 87.7024C49.3704 86.5915 48.3879 85.6771 47.2088 85.2707C44.9253 84.4849 42.2217 85.8261 41.1578 87.9124C39.972 90.2426 40.5209 93.2705 42.3572 95.1265C43.3872 96.1629 44.8034 96.3932 46.2128 96.3187C47.4867 96.2509 48.747 95.8919 49.6889 94.9978C50.7121 94.0223 51.0848 92.566 50.9899 91.1909C50.9425 90.4932 50.8205 89.7955 50.6511 89.1181L50.6579 89.1114Z" fill="#F8FAFC"/>
<path d="M77.2132 11.4094C78.5548 11.4636 80.0117 11.0843 80.9061 10.0208C81.5905 9.20796 81.9564 8.16481 81.787 7.14875C82.4782 4.85244 81.1636 2.45453 79.246 1.18784C78.2431 0.524009 77.0099 0.0972687 75.8105 0.00920971C74.4418 -0.0923968 73.2153 0.659466 72.3208 1.63489C70.6404 3.45703 70.0915 5.99719 71.1622 8.27317C72.2328 10.5559 74.889 11.3214 77.2267 11.4094H77.2132Z" fill="#F8FAFC"/>
<path d="M42.4927 12.7777C44.5255 14.5389 47.9135 15.2366 49.9667 13.0961C50.9899 12.0326 51.4032 10.6033 51.5726 9.17406C51.6539 8.517 51.7013 7.80576 51.5726 7.14871C51.5319 6.94549 51.4574 6.7558 51.3625 6.57291C51.3083 6.32906 51.2474 6.08524 51.1593 5.84815C50.6036 4.41212 49.5195 3.33509 48.0897 2.75932C46.6871 2.1971 45.0947 2.37321 43.7124 2.92188C42.9874 3.20638 42.2149 3.52475 41.5847 3.98537C40.8732 4.50017 40.4599 5.25205 40.2634 6.092C39.6942 8.50346 40.6429 11.1723 42.4995 12.7845L42.4927 12.7777Z" fill="#F8FAFC"/>
<path d="M51.8707 61.7927C50.8882 61.0815 49.6076 60.7292 48.3675 60.7767C47.4799 60.3973 46.5041 60.2551 45.5758 60.5193C43.6853 61.0679 42.5673 62.8969 42.3708 64.7732C42.1742 66.6292 42.818 68.7088 43.6243 70.3683C44.4713 72.1092 46.1111 73.193 48.0423 73.2878C49.8244 73.3759 51.5862 72.4614 52.6974 71.0931C54.9335 68.3497 54.8657 63.9671 51.864 61.7927H51.8707Z" fill="#F8FAFC"/>
<path d="M126.272 85.4738C123.832 83.7601 120.451 83.2791 117.876 84.9793C116.623 85.8057 115.64 87.0589 115.328 88.5491C114.99 90.2087 115.328 91.8886 115.871 93.4669C116.392 94.9842 117.131 96.4473 118.628 97.1992C119.997 97.8901 121.623 98.0188 123.128 97.836C124.889 97.6192 126.665 96.9418 127.81 95.5261C128.257 94.9774 128.603 94.3542 128.826 93.6972C128.989 93.5956 129.145 93.4533 129.267 93.2501C131.083 90.3645 128.596 87.0995 126.265 85.467L126.272 85.4738Z" fill="#F8FAFC"/>
<path d="M11.079 40.767C8.63959 39.0532 5.25833 38.5722 2.68343 40.2725C1.42986 41.0989 0.44735 42.352 0.135652 43.8423C-0.203151 45.5018 0.135644 47.1817 0.677727 48.76C1.19948 50.2773 1.93808 51.7405 3.43558 52.4924C4.80434 53.1833 6.43059 53.312 7.93487 53.1291C9.69664 52.9123 11.472 52.2349 12.6171 50.8192C13.0643 50.2706 13.4099 49.6474 13.6335 48.9903C13.7962 48.8887 13.952 48.7465 14.074 48.5432C15.89 45.6576 13.4031 42.3927 11.0722 40.7602L11.079 40.767Z" fill="#F8FAFC"/>
<path d="M36.6382 23.88C33.9414 22.5997 30.777 23.1891 28.5476 25.106C27.3415 26.1424 26.5013 27.6462 26.3116 29.2245C26.0947 31.0127 26.9485 32.5978 28.1546 33.8577C30.0858 35.8831 33.0402 37.0482 35.8319 36.5537C38.1425 36.1405 40.1618 34.1422 40.487 31.8866C40.6768 31.6495 40.7987 31.3514 40.8191 31.0263C41.0223 28.1204 39.2741 25.1399 36.645 23.8868L36.6382 23.88Z" fill="#F8FAFC"/>
<path d="M33.3857 48.0826C32.3422 47.202 31.0005 46.6262 29.6318 46.6601C29.5979 46.6466 29.5708 46.633 29.5369 46.6195C28.1817 46.1588 26.7994 46.7482 25.9524 47.8387C24.2652 50.0199 24.9225 53.4271 26.7046 55.344C28.5748 57.3558 32.1931 57.7013 34.0769 55.5066C35.9742 53.2984 35.5879 49.9386 33.379 48.0826H33.3857Z" fill="#F8FAFC"/>
<path d="M62.272 29.8882C63.3833 29.8611 64.5894 29.6444 65.5381 29.0483C66.7713 28.2761 67.4828 26.9281 67.4354 25.4717C67.4354 25.3295 67.415 25.1804 67.4015 25.0382C67.4489 24.9027 67.476 24.7605 67.4692 24.6114C67.3947 22.1661 66.1005 19.5989 63.5391 19.0028C62.3872 18.7318 61.1065 18.8944 60.1443 19.6124C59.2499 20.283 58.6739 21.1975 58.3351 22.2542C58.037 23.189 57.9421 24.205 57.9285 25.1805C57.915 26.4607 58.0505 27.8426 59.0127 28.7909C59.8665 29.6308 61.1065 29.9153 62.272 29.8882Z" fill="#F8FAFC"/>
<path d="M4.67559 99.6581C5.78686 99.631 6.993 99.4142 7.94165 98.8181C9.17489 98.0459 9.88638 96.6979 9.83895 95.2416C9.83895 95.0993 9.81861 94.9503 9.80506 94.808C9.85249 94.6726 9.8796 94.5303 9.87282 94.3813C9.79829 91.936 8.50407 89.3687 5.94272 88.7726C4.7908 88.5017 3.51012 88.6642 2.54792 89.3822C1.65348 90.0528 1.07751 90.9673 0.738704 92.024C0.440558 92.9588 0.345689 93.9749 0.332137 94.9503C0.318585 96.2305 0.45411 97.6124 1.41631 98.5607C2.27009 99.4007 3.51011 99.6852 4.67559 99.6581Z" fill="#F8FAFC"/>
<path d="M106.005 15.8259C106.513 14.6947 106.642 13.4212 106.296 12.2155C105.93 10.9285 105.049 9.83793 103.897 9.1741C103.389 8.88283 102.854 8.67964 102.305 8.55771C101.024 8.00226 99.4861 8.0361 98.307 8.8625C97.2703 9.58729 96.5859 10.644 96.4165 11.904C96.2403 13.2316 96.7756 14.5322 97.4939 15.6227C98.2122 16.7133 99.0524 17.7023 100.306 18.1697C101.289 18.5422 102.488 18.5152 103.464 18.129C104.561 17.6955 105.517 16.9301 106.011 15.8327L106.005 15.8259Z" fill="#F8FAFC"/>
<path d="M18.4445 10.3595C16.7979 8.99799 14.1485 9.10638 12.3596 10.2376C11.2483 10.9421 10.4352 12.0056 10.3268 13.34C10.2048 14.7422 11.1332 16.0088 12.014 17.0046C13.6877 18.8877 16.6895 20.3644 19.0273 18.6912C20.972 17.3026 21.6292 14.6067 20.5654 12.4661C20.1046 11.5381 19.3457 10.8337 18.4445 10.3527V10.3595Z" fill="#F8FAFC"/>
<path d="M109.244 105.192C107.597 103.831 104.948 103.939 103.159 105.07C102.047 105.775 101.234 106.838 101.126 108.173C101.004 109.575 101.932 110.842 102.813 111.837C104.487 113.72 107.489 115.197 109.826 113.524C111.771 112.135 112.428 109.439 111.364 107.299C110.904 106.371 110.145 105.666 109.244 105.185V105.192Z" fill="#F8FAFC"/>
<path d="M31.834 102.496C31.6985 102.368 31.5562 102.246 31.4139 102.117C30.8989 101.568 30.3026 101.101 29.625 100.783C29.5166 100.735 29.4014 100.694 29.2862 100.667C28.961 100.512 28.6221 100.376 28.2766 100.275C26.9756 99.8884 25.478 99.99 24.2922 100.681C21.819 102.117 21.8055 105.423 22.6321 107.827C23.5062 110.347 25.7356 112.61 28.6018 112.339C31.3258 112.081 33.1147 109.588 33.2366 106.981C33.2976 105.646 32.9046 104.285 32.1931 103.133C32.1389 102.896 32.0237 102.666 31.8408 102.496H31.834Z" fill="#F8FAFC"/>
<path d="M62.4549 113.321C62.6447 113.016 62.7125 112.643 62.6176 112.264C62.3465 111.201 61.6215 110.374 60.7067 109.853C60.5577 109.737 60.3815 109.643 60.1917 109.595C59.5887 109.338 58.9314 109.202 58.2741 109.216C56.16 109.257 54.4321 110.781 53.9578 112.82C53.4428 115.021 54.2288 117.311 56.0312 118.679C56.9121 119.349 58.0641 119.715 59.1686 119.566C60.3611 119.404 61.3572 118.72 61.9942 117.697C62.6785 116.593 62.8141 115.278 62.6176 114.019C62.5837 113.781 62.5227 113.558 62.4617 113.328L62.4549 113.321Z" fill="#F8FAFC"/>
<path d="M136.619 65.2812C136.592 65.1051 136.51 64.9425 136.402 64.807C136.104 63.6826 135.372 62.6462 134.41 61.9959C132.424 60.6547 129.809 61.0679 128.094 62.6462C126.4 64.211 126.014 66.7308 127.173 68.7223C128.305 70.6731 130.703 71.8653 132.926 71.2015C134.152 70.8357 135.182 70.0025 135.88 68.939C136.598 67.8417 136.815 66.5547 136.619 65.2744V65.2812Z" fill="#F8FAFC"/>
<path d="M24.814 72.7324C24.7869 72.5563 24.7056 72.3937 24.5972 72.2582C24.299 71.1338 23.5672 70.0974 22.605 69.4471C20.6196 68.1059 18.0041 68.5191 16.2897 70.0974C14.5957 71.6621 14.2095 74.182 15.3682 76.1734C16.4998 78.1243 18.8985 79.3165 21.121 78.6527C22.3475 78.2869 23.3775 77.4537 24.0754 76.3902C24.7937 75.2928 25.0105 74.0059 24.814 72.7256V72.7324Z" fill="#F8FAFC"/>
<path d="M123.033 14.3967C125.072 16.0833 128.494 16.6455 130.439 14.4576C131.008 13.8141 131.334 13.0487 131.632 12.2561C131.876 11.6059 132.092 10.9488 132.221 10.2647C132.384 9.39762 132.404 8.52382 132.214 7.7042C132.391 6.37654 131.957 5.06918 131.062 4.04635C130.093 2.94222 128.589 2.39356 127.132 2.40711C124.253 2.44097 121.759 4.5002 120.885 7.18938C120.051 9.73632 120.986 12.6965 123.04 14.3899L123.033 14.3967Z" fill="#F8FAFC"/>
</svg>
