<svg width="74" height="72" viewBox="0 0 74 72" fill="none" xmlns="http://www.w3.org/2000/svg">
<path d="M35.8882 71.5945C32.5883 71.5945 29.4442 71.2286 26.5034 70.5106C10.0512 66.4667 -1.96272 48.8617 0.266596 32.0763C2.54335 14.9048 18.9821 0.158291 35.5156 0.463111C40.3673 -0.911964 45.6457 1.02533 50.2873 3.00327C56.955 5.84148 66.0891 9.73637 70.5342 17.533C74.0306 23.6632 74.0171 31.1821 74.0035 37.2243C73.9967 42.0608 73.99 47.5476 71.9978 52.4992C69.301 59.212 62.945 64.78 54.109 68.1669C49.6978 69.8603 45.0766 70.9441 40.3672 71.3844C38.8426 71.5267 37.3451 71.6012 35.8815 71.6012L35.8882 71.5945ZM33.5709 3.20648C19.0024 4.0261 4.97592 17.1943 2.94988 32.4285C0.896742 47.9134 11.9756 64.1433 27.1472 67.8756C31.0976 68.851 35.4613 69.122 40.1165 68.6817C44.5751 68.2617 48.9593 67.2389 53.1401 65.6335C57.8427 63.8317 66.2247 59.5913 69.4839 51.4831C71.2796 47.0124 71.2863 41.8034 71.2931 37.2108C71.2999 31.1957 71.3134 24.3677 68.1761 18.8606C64.49 12.3849 57.409 8.97094 49.2235 5.48245C44.4058 3.43 39.3441 1.58752 35.0887 3.4774C34.5602 3.71449 33.9571 3.5858 33.5709 3.19292V3.20648Z" fill="#f8fafc"/>
<path d="M36.4167 15.0199C35.6781 15.0199 35.075 14.4305 35.0615 13.6922C34.9937 10.0411 34.8311 6.3359 34.5668 2.69839C34.5126 1.95328 35.075 1.30298 35.8204 1.24879C36.5725 1.20138 37.2163 1.75685 37.2705 2.50197C37.5415 6.19367 37.7109 9.9463 37.7719 13.6448C37.7855 14.3899 37.1892 15.0131 36.4438 15.0267H36.4167V15.0199Z" fill="#f8fafc"/>
<path d="M38.6258 70.9509C37.9414 70.9509 37.3519 70.4294 37.2774 69.7317C36.9182 66.1551 36.7013 62.5243 36.6404 58.941C36.6268 58.1959 37.2232 57.5795 37.9753 57.566C38.7207 57.5321 39.344 58.1485 39.3508 58.9004C39.4118 62.4092 39.6219 65.9654 39.9742 69.4675C40.0487 70.2126 39.5066 70.8764 38.7613 70.9509C38.7138 70.9509 38.6664 70.9509 38.6258 70.9509Z" fill="#f8fafc"/>
<path d="M2.68557 39.0871C1.97409 39.0871 1.3778 38.5316 1.33714 37.8136C1.28971 37.0685 1.86568 36.425 2.61104 36.3843L6.16847 36.1743C8.65528 36.0321 11.2234 35.8763 13.7983 36.3505C14.5369 36.4859 15.018 37.1972 14.8825 37.9288C14.7469 38.6603 14.0423 39.148 13.3037 39.0126C11.0472 38.5926 8.64849 38.7348 6.3243 38.8703L2.77366 39.0803C2.77366 39.0803 2.71946 39.0803 2.69235 39.0803L2.68557 39.0871Z" fill="#f8fafc"/>
<path d="M63.311 37.8881C62.4436 37.8881 61.5763 37.8542 60.7089 37.7797C59.9636 37.7188 59.4079 37.0617 59.4689 36.3166C59.5299 35.5715 60.1669 35.0093 60.9326 35.077C63.067 35.2531 65.2218 35.1921 67.3427 34.8941C67.6612 34.8467 67.9729 34.7993 68.2914 34.7519C69.5382 34.5554 70.8324 34.3522 72.1808 34.4403C72.9262 34.4877 73.4954 35.1312 73.4479 35.8763C73.4005 36.6214 72.7432 37.1904 72.0114 37.143C70.9543 37.0753 69.8702 37.2446 68.7183 37.4275C68.3862 37.4817 68.0609 37.5291 67.7289 37.5765C66.272 37.7797 64.7949 37.8881 63.3178 37.8881H63.311Z" fill="#f8fafc"/>
<path d="M41.2413 39.5206C40.9228 39.5206 40.6111 39.4122 40.3536 39.1887C37.6974 36.8788 34.8854 34.7045 31.9785 32.7265C31.3618 32.3066 31.1992 31.4598 31.6193 30.8434C32.0394 30.227 32.8865 30.0644 33.5031 30.4844C36.4913 32.5233 39.3982 34.7586 42.129 37.143C42.6914 37.6375 42.7523 38.491 42.2577 39.0532C41.9866 39.358 41.6139 39.5206 41.2345 39.5206H41.2413Z" fill="#f8fafc"/>
<path d="M32.3038 32.3675C31.8634 32.3675 31.4297 32.1508 31.1654 31.7511C30.7589 31.1279 30.935 30.288 31.5584 29.8748C32.9678 28.9535 34.4857 28.3439 35.9493 27.7478L47.7735 22.9655C48.4714 22.6878 49.2574 23.0197 49.5353 23.7106C49.8131 24.4016 49.4811 25.1941 48.7899 25.4718L36.9657 30.2541C35.6173 30.796 34.2282 31.365 33.0424 32.1372C32.812 32.2862 32.5545 32.3607 32.3038 32.3607V32.3675Z" fill="#f8fafc"/>
<path d="M41.0313 39.9745C40.8416 39.9745 40.645 39.9338 40.4621 39.8458C39.7844 39.5274 39.4863 38.7281 39.8048 38.044C40.7534 36.005 41.9392 34.0813 43.0844 32.2185C44.88 29.3058 46.5808 26.5489 47.4007 23.4465C47.5904 22.7217 48.3291 22.2882 49.0541 22.4846C49.7792 22.6743 50.2128 23.4194 50.0163 24.1374C49.0948 27.6327 47.211 30.6876 45.3882 33.641C44.2838 35.4361 43.1386 37.2921 42.2577 39.1819C42.0273 39.6764 41.5395 39.9677 41.0313 39.9677V39.9745Z" fill="#f8fafc"/>
<path d="M41.9866 38.1794C41.5868 37.502 40.8144 37.3936 40.1503 37.6985C40.0961 37.7256 40.0419 37.7526 39.9809 37.7797C39.8793 37.5562 39.7031 37.3598 39.4456 37.2108C37.3992 36.0254 35.197 34.7925 33.8553 32.7739C33.6656 32.4826 33.3878 32.3066 33.0964 32.2185C33.3336 30.8638 31.3753 29.8544 30.6706 31.2634C28.0212 36.5537 25.6293 41.9727 23.4948 47.4933C23.2306 48.1707 23.7862 48.97 24.4299 49.1461C25.0262 49.3087 25.5412 49.0513 25.8597 48.6043C30.8536 45.3664 36.0847 42.4943 41.5055 40.0286C42.1628 39.7306 42.3254 38.7687 41.9866 38.1929V38.1794Z" fill="#f8fafc"/>
</svg>
