<svg width="298" height="213" viewBox="0 0 298 213" fill="none" xmlns="http://www.w3.org/2000/svg">
<path d="M65.2372 212.66C58.8135 212.66 52.234 211.969 45.7087 210.283C35.1381 207.424 25.2721 201.436 17.9133 193.423C9.99892 184.813 5.66903 174.741 5.38444 164.302C5.22181 149.054 13.0007 135.053 24.2761 122.786C22.9209 122.02 21.6131 121.221 20.3595 120.388C11.964 114.8 6.1027 107.843 2.93151 99.7143C-0.287109 91.4639 -2.34024 77.5506 6.15692 58.137C19.7158 27.1808 50.1741 4.67162 83.7562 0.783478L84.0679 3.47266C51.4277 7.24565 21.8231 29.1317 8.64368 59.2208C2.3013 73.7031 1.16973 87.7315 5.45897 98.7254C7.34948 103.575 12.6416 113.35 26.1463 120.808C43.0728 103.257 66.9041 89.4385 84.0272 80.89C108.787 69.1511 129.359 66.2113 146.936 71.8945C151.808 73.2831 154.857 75.7826 155.935 79.3185C157.242 83.5995 155.433 88.9712 150.832 94.4376C126.093 124.256 83.9866 138.887 46.0679 130.833C39.1089 129.356 32.536 127.06 26.7086 124.086C15.6027 136.001 7.93901 149.569 8.09486 164.255C8.54208 180.783 21.8503 201.016 46.4067 207.668C75.2862 215.119 110.549 203.299 136.277 185.836C128.627 182.646 122.346 176.8 123.593 169.294C124.494 163.862 129.183 159.5 137.531 156.323C143.284 154.135 152.093 153.796 157.1 157.461C159.533 159.242 160.725 161.776 160.556 164.776C160.346 168.421 157.947 171.306 155.386 173.88C151.415 177.735 146.997 181.447 142.247 184.942C142.274 184.942 142.294 184.955 142.322 184.962C174.786 192.752 211.207 179.923 232.274 154.162C230.498 154.406 228.709 154.568 226.921 154.643C218.329 155.002 211.79 152.076 209.438 146.799C206.545 140.303 210.97 132.709 216.838 128.564C222.306 124.703 230.593 123.619 236.536 125.99C240.527 127.582 243.142 130.589 243.908 134.45C244.945 139.666 242.228 144.712 239.754 148.519C239.409 149.048 239.056 149.576 238.704 150.098C248.163 147.557 257.365 142.464 266.188 134.857C276.521 125.949 286.103 113.878 294.667 98.976L297.019 100.324C288.298 115.497 278.527 127.805 267.956 136.909C257.853 145.62 247.228 151.161 236.272 153.464C214.907 181.596 176.141 195.861 141.691 187.59C140.933 187.408 140.174 187.198 139.421 186.967C128.797 194.398 116.722 200.725 104.484 205.175C94.0896 208.948 80.0903 212.66 65.244 212.66H65.2372ZM146.658 157.379C144.043 157.379 141.217 157.826 138.5 158.856C131.114 161.66 127.001 165.318 126.269 169.735C125.483 174.483 129.19 180.654 138.94 183.987C144.3 180.166 149.199 176.116 153.482 171.957C155.65 169.775 157.69 167.364 157.852 164.621C157.974 162.521 157.202 160.895 155.501 159.649C153.624 158.274 150.358 157.379 146.658 157.379ZM229.489 127.426C225.586 127.426 221.486 128.598 218.396 130.772C213.429 134.274 209.608 140.526 211.912 145.695C214.696 151.947 224.014 152.048 226.805 151.933C229.461 151.825 232.097 151.513 234.72 151.012C235.675 149.718 236.597 148.397 237.478 147.043C239.68 143.663 242.092 139.239 241.245 134.979C240.5 131.219 237.722 129.383 235.526 128.503C233.703 127.778 231.623 127.426 229.489 127.426ZM28.606 122.095C33.5593 124.54 39.5018 126.667 46.6302 128.178C53.3927 129.614 60.2975 130.311 67.2091 130.311C98.0537 130.311 129.047 116.446 148.752 92.6967C152.689 88.0228 154.363 83.437 153.339 80.1111C152.547 77.5099 150.121 75.6201 146.143 74.4888C129.21 69.0156 109.295 71.908 85.213 83.3354C68.4829 91.6874 45.2073 105.14 28.6127 122.102L28.606 122.095Z" fill="#f8fafc"/>
</svg>
