<svg width="67" height="62" viewBox="0 0 67 62" fill="none" xmlns="http://www.w3.org/2000/svg">
<path d="M3.40316 58.194C2.6849 58.194 2.08861 57.6318 2.04795 56.907L0.713092 29.0872C0.692764 28.5927 0.936662 28.1321 1.35 27.8679C1.77012 27.6105 2.29189 27.5969 2.72556 27.834L17.7209 36.1793C22.4641 25.0093 26.6722 13.4804 30.2296 1.89048C30.3922 1.36213 30.8665 0.982795 31.4154 0.935379C31.9575 0.887962 32.4928 1.18601 32.7367 1.68727L48.2945 33.3004L59.5224 20.1255C59.868 19.7258 60.4168 19.5565 60.925 19.6987C61.4332 19.841 61.8127 20.2745 61.8941 20.7961C63.71 32.5282 65.1126 44.4704 66.0545 56.2906C66.1155 57.0357 65.5598 57.6928 64.8144 57.747C64.0758 57.8012 63.4186 57.2525 63.3576 56.5074C62.4971 45.7371 61.2571 34.8584 59.6647 24.1423L49.0196 36.6264C48.7214 36.9718 48.2742 37.1547 47.8202 37.0937C47.3662 37.0396 46.9731 36.7551 46.7699 36.3486L31.8015 5.92764C28.2847 16.996 24.192 27.9763 19.6182 38.6246C19.4691 38.9769 19.171 39.2478 18.8119 39.3697C18.4528 39.4917 18.0531 39.4578 17.7143 39.2681L3.53187 31.3767L4.75159 56.758C4.78547 57.5031 4.20957 58.1398 3.46421 58.1737C3.44388 58.1737 3.41671 58.1737 3.39638 58.1737L3.40316 58.194Z" fill="#1E293B"/>
<path d="M2.95592 61.4522C2.21055 61.4522 1.60071 60.8493 1.60071 60.0975C1.60071 59.3523 2.20378 58.7427 2.95592 58.7427C23.4873 58.7088 44.283 57.9976 64.7738 56.6157C65.5191 56.5683 66.1628 57.1305 66.217 57.8757C66.2644 58.6208 65.7021 59.2711 64.9568 59.3185C44.4118 60.7003 23.5483 61.4183 2.9627 61.4522H2.95592Z" fill="#1E293B"/>
</svg>
