<svg width="71" height="64" viewBox="0 0 71 64" fill="none" xmlns="http://www.w3.org/2000/svg">
<path d="M2.39597 36.5247C2.16034 36.5878 1.9072 36.5855 1.65614 36.5125C0.939214 36.2979 0.533747 35.544 0.748567 34.8272C2.42412 29.273 4.30349 24.5057 6.47928 18.9857C6.9933 17.6839 7.52474 16.3423 8.06834 14.9414C8.33774 14.2451 9.12261 13.9015 9.82563 14.169C10.5221 14.4382 10.8656 15.2227 10.598 15.9256C10.0544 17.3265 9.52467 18.6746 9.0041 19.9782C6.84876 25.4436 4.98984 30.1563 3.3421 35.6049C3.20033 36.0707 2.8345 36.4072 2.39597 36.5247Z" fill="#f8fafc"/>
<path d="M10.2227 16.7765C9.51582 16.9659 8.78253 16.5593 8.5718 15.8514C8.35931 15.1369 8.76742 14.3824 9.48867 14.1681C12.1856 13.3683 17.2339 11.8403 23.0803 10.0704C34.9789 6.46142 49.7852 1.97514 54.6286 0.677353C55.3486 0.484439 56.0955 0.915465 56.2883 1.63519C56.4812 2.35492 56.0499 3.10162 55.3299 3.29454C50.5323 4.58005 35.7456 9.06106 23.8649 12.6582C18.0185 14.4281 12.9655 15.9644 10.2602 16.7594C10.2471 16.7629 10.234 16.7665 10.2275 16.7682L10.2227 16.7765Z" fill="#f8fafc"/>
<path d="M69.8397 15.5569C69.447 15.6621 69.0135 15.589 68.6623 15.3254C66.4362 13.6147 64.1507 11.6043 61.7285 9.47633C59.3046 7.34177 56.7924 5.1397 54.1442 3.05823C53.5579 2.5982 53.4549 1.74222 53.9151 1.15605C54.3754 0.569885 55.2316 0.466681 55.8179 0.926713C58.5277 3.0548 61.0683 5.28432 63.5206 7.44634C65.9061 9.54211 68.1631 11.525 70.3177 13.1778C70.9105 13.6361 71.0249 14.482 70.5664 15.0747C70.3798 15.321 70.1212 15.4815 69.8397 15.5569Z" fill="#f8fafc"/>
<path d="M46.6977 63.6798C46.377 63.7658 46.0182 63.7357 45.6981 63.562C30.6634 55.3884 16.7303 47.2422 1.84756 37.9339C1.21466 37.5354 1.01994 36.704 1.41685 36.0647C1.81552 35.4319 2.64723 35.2371 3.28667 35.6338C18.1197 44.9134 32.0094 53.0291 46.9961 61.1805C47.653 61.5374 47.8953 62.3631 47.5381 63.0199C47.3547 63.3565 47.0446 63.5869 46.6977 63.6798Z" fill="#f8fafc"/>
<path d="M47.2412 63.6394C46.9335 63.7218 46.5895 63.6948 46.283 63.5455C45.6117 63.2135 45.3433 62.3948 45.6773 61.7303C53.4424 46.2553 60.9986 30.4717 68.1428 14.8265C68.4519 14.1475 69.2556 13.8481 69.9412 14.1553C70.6202 14.4642 70.9197 15.2676 70.6123 15.953C63.4554 31.6297 55.8784 47.4399 48.1007 62.9463C47.916 63.3043 47.6029 63.5495 47.2364 63.6477L47.2412 63.6394Z" fill="#f8fafc"/>
<path d="M2.9462 36.798C2.38332 36.9488 1.76154 36.7227 1.43884 36.1991C1.0501 35.5599 1.24819 34.7284 1.88762 34.3397C5.41979 32.18 48.9917 19.2778 67.3313 14.3637C68.0512 14.1708 68.7981 14.6018 68.9909 15.3215C69.1838 16.0412 68.7525 16.788 68.0325 16.9809C49.3592 21.9844 6.2778 34.8324 3.30525 36.6457C3.19141 36.7183 3.07056 36.7647 2.9462 36.798Z" fill="#f8fafc"/>
<path d="M47.1284 62.8001C46.9452 62.8492 46.7449 62.8608 46.5454 62.823C45.8085 62.6909 45.3118 61.9895 45.4441 61.2528C47.7233 48.2646 48.5697 35.0082 47.9746 21.8435C47.9423 21.0948 48.5169 20.4639 49.2658 20.4316C50.0148 20.3992 50.6457 20.9735 50.678 21.7222C51.2847 35.0872 50.4219 48.5443 48.1098 61.7237C48.0152 62.2609 47.6193 62.6685 47.1284 62.8001Z" fill="#f8fafc"/>
<path d="M47.3009 62.8941C46.8362 63.0186 46.318 62.891 45.9649 62.5157C36.3013 52.2648 27.0076 41.4309 18.3421 30.3234C17.8819 29.7314 17.9844 28.8835 18.5766 28.4232C19.1688 27.963 20.017 28.0653 20.4773 28.6573C29.0973 39.6998 38.3307 50.4657 47.9357 60.6552C48.4461 61.1987 48.4244 62.0601 47.8807 62.5704C47.7124 62.7277 47.5104 62.838 47.3009 62.8941Z" fill="#f8fafc"/>
<path d="M20.6923 29.2238C20.4566 29.287 20.1969 29.2864 19.9441 29.2069C19.232 28.984 18.8265 28.23 19.0479 27.5115C20.7849 21.8988 22.9026 16.3453 25.3444 11.0065C25.6536 10.3276 26.4572 10.0281 27.1428 10.3353C27.8219 10.6442 28.1213 11.4476 27.814 12.1331C25.4214 17.3675 23.3446 22.8118 21.6419 28.3172C21.4984 28.7764 21.1326 29.1129 20.7006 29.2286L20.6923 29.2238Z" fill="#f8fafc"/>
<path d="M48.9388 21.515C48.4348 21.65 47.8782 21.4836 47.5307 21.0507C45.2963 18.2623 37.7012 10.0238 36.6844 8.97784C36.1626 8.44442 36.1778 7.58479 36.7115 7.06311C37.2517 6.53967 38.1051 6.55648 38.6268 7.0899C39.6922 8.18594 47.3139 16.4454 49.6439 19.3555C50.109 19.9391 50.0148 20.7919 49.4309 21.2569C49.28 21.3745 49.1138 21.4611 48.9371 21.5084L48.9388 21.515Z" fill="#f8fafc"/>
</svg>
