<svg width="51" height="60" viewBox="0 0 51 60" fill="none" xmlns="http://www.w3.org/2000/svg">
<path d="M9.84801 54.4042C9.31451 54.7123 8.76327 54.9895 8.17963 55.2581C7.45077 55.5831 6.61285 55.5062 5.93951 55.0745C5.26617 54.6427 4.86632 53.9027 4.85552 53.1021C4.70856 36.3802 3.19604 19.5441 0.383265 3.06218C0.157301 1.77043 1.03355 0.539759 2.32124 0.329636C2.54145 0.284551 2.75901 0.282031 2.96779 0.311922C3.73651 0.0322005 4.6303 0.158871 5.3013 0.728728C14.642 8.61441 25.7575 14.4088 36.5004 20.008L49.1283 26.5976C49.95 27.0257 50.4474 27.8872 50.397 28.8189C50.3467 29.7505 49.7742 30.5596 48.9029 30.8986C37.9956 35.2267 26.7142 39.6888 17.9808 47.6164C17.3968 48.145 16.8145 48.7001 16.2423 49.2492C14.2888 51.1019 12.2855 53.0106 9.85391 54.4144L9.84801 54.4042ZM5.86722 7.25324C7.99678 21.0117 9.22062 34.9785 9.52298 48.8893C10.6886 47.9702 11.8081 46.8999 12.9686 45.806C13.5758 45.2229 14.1787 44.6561 14.7875 44.0994C22.7921 36.8524 32.871 32.2504 42.3478 28.4063L34.2836 24.2007C24.6466 19.1664 14.7255 13.9953 5.84513 7.2387L5.86722 7.25324Z" fill="#1E293B"/>
<path d="M39.4422 59.2939C38.3239 59.9396 36.8956 59.5745 36.2297 58.4684L29.6265 47.5526C26.4167 42.2537 23.1062 36.7804 19.5503 31.6403C18.8066 30.5654 19.0736 29.0848 20.1548 28.3511C21.2301 27.6072 22.7109 27.8737 23.4444 28.9545C27.0816 34.2118 30.4274 39.7466 33.6728 45.107L40.2759 56.0228C40.9478 57.1392 40.6001 58.5981 39.4731 59.2761L39.432 59.2999L39.4422 59.2939Z" fill="#1E293B"/>
<path d="M11.473 51.6746C10.7343 52.1011 9.83216 52.1023 9.08976 51.6694C8.30314 51.2073 7.85859 50.3426 7.9267 49.4418C8.99782 36.1329 7.80335 22.8328 4.38739 9.92649C4.0916 8.79812 4.66838 7.61722 5.72279 7.14521C6.79339 6.67752 8.04243 7.0641 8.67404 8.03961C11.5573 12.5834 14.7705 16.9642 18.228 21.0808L19.2161 22.2471C21.8256 25.3216 24.531 28.4912 26.0792 32.4521C26.4061 33.3027 26.2251 34.2687 25.602 34.9429C25.4426 35.117 25.2892 35.3013 25.1357 35.4857C25.6256 36.3105 25.5847 37.4007 24.9313 38.1882C21.0318 42.9968 16.9876 47.9575 11.6005 51.5874C11.5492 51.617 11.5081 51.6407 11.4568 51.6703L11.473 51.6746Z" fill="#1E293B"/>
<path d="M41.927 30.6867C40.9729 31.2376 39.8518 31.5703 38.6414 31.6537L33.0434 34.0653C32.5727 34.2687 31.5738 34.695 30.4163 34.4197C30.1309 34.352 29.8807 34.2502 29.651 34.1367C29.6159 34.1706 29.5765 34.2208 29.5413 34.2547C29.7341 34.9913 29.5597 35.8031 29.0231 36.4138C28.7146 36.756 28.3839 37.0837 28.0414 37.3908L27.1797 38.2439C26.7934 38.6174 26.3079 38.8429 25.8028 38.9157C25.5917 39.0239 25.3644 39.1278 25.1474 39.2258C24.4023 39.5465 23.5381 39.4711 22.8734 39.007C22.1985 38.5488 21.8175 37.7705 21.8434 36.9624C21.8434 36.9624 21.8434 36.9624 21.8375 36.9521C20.8438 36.8421 19.9182 36.5423 19.1111 36.092C18.0368 35.7003 17.2529 34.8401 16.969 33.7322C16.8209 33.1203 16.9166 32.5044 17.2038 31.983C16.7162 30.6645 17.0886 29.082 18.1259 28.0592C18.1859 27.9972 18.2517 27.9455 18.3117 27.8836C18.2793 27.5194 18.3381 27.1709 18.4675 26.8501L17.2558 26.2915C16.4534 25.9206 15.9343 25.1399 15.8923 24.2616C15.8729 23.8489 15.9344 23.4579 16.093 23.0928C13.678 20.1657 11.0859 17.382 8.34892 14.7502C7.42529 13.8613 7.36892 12.3895 8.24053 11.435C9.11214 10.4805 10.5826 10.3974 11.5516 11.2465C13.6238 13.0586 16.1582 14.3441 18.8396 15.6951C20.8482 16.7098 22.9332 17.7623 24.8858 19.0829C25.2233 19.312 25.5504 19.547 25.8835 19.7923C26.258 19.7539 26.627 19.8007 26.9965 19.9429C31.356 21.6652 35.6288 23.7111 39.7221 26.0384L40.9278 25.5201C41.9266 25.0939 43.0857 25.3956 43.7477 26.2578C44.4096 27.1201 44.3913 28.3204 43.7103 29.1785C43.2163 29.792 42.6204 30.3001 41.9432 30.691L41.927 30.6867Z" fill="#1E293B"/>
</svg>
