<svg width="90" height="55" viewBox="0 0 90 55" fill="none" xmlns="http://www.w3.org/2000/svg">
<path d="M18.8363 54.2702C18.45 54.2702 18.057 54.2566 17.664 54.216C17.0135 54.155 16.5053 53.6402 16.4443 52.9899C16.0242 48.3837 15.4957 43.7302 14.8791 39.124C11.5724 39.7066 8.3944 39.334 5.81273 38.0606C2.20109 36.2723 -0.129912 32.628 0.00560938 28.9837C0.120802 25.8678 1.97749 22.8331 4.97251 20.8552C6.97822 19.5343 9.41757 18.674 12.5752 18.1795C12.9411 13.4311 13.1105 8.6285 13.0902 3.87332C13.0902 3.14175 13.6594 2.53896 14.3912 2.51186L32.1512 1.80737C32.883 1.78027 33.5267 2.36276 33.5606 3.10788C33.5877 3.85299 33.005 4.483 32.2597 4.51687L15.8006 5.16713C15.7871 9.93586 15.5838 14.7385 15.1908 19.4801C15.1365 20.1168 14.6419 20.6317 14.0049 20.713C10.7321 21.1194 8.34017 21.878 6.4632 23.1176C4.23388 24.5875 2.79056 26.8703 2.70925 29.0786C2.61438 31.6323 4.383 34.3214 7.0121 35.622C9.39727 36.8006 12.4735 36.9971 15.6786 36.1707C16.0513 36.0758 16.4511 36.1436 16.7695 36.3604C17.088 36.5771 17.3049 36.9158 17.3591 37.3019C18.0096 42.0232 18.572 46.8122 19.026 51.5539C19.812 51.5403 20.6184 51.459 21.4044 51.371L34.4687 49.996C35.2208 49.9214 35.878 50.4565 35.9594 51.2016C36.0407 51.9467 35.4986 52.6106 34.7532 52.6919L21.689 54.067C20.7606 54.1618 19.8052 54.2634 18.8295 54.2634L18.8363 54.2702Z" fill="#f8fafc"/>
<path d="M54.8579 53.9992C54.5123 53.9992 54.1802 53.8638 53.9228 53.6267C53.6178 53.3355 53.4688 52.929 53.5094 52.509C53.794 49.7115 53.5094 47.2865 52.6827 45.3017C51.734 43.0325 49.9723 41.2917 47.9666 40.6549C46.9231 40.323 45.7237 40.2418 44.4092 40.4111C41.6784 40.7701 39.2187 42.1384 37.6535 44.1706C36.0408 46.2772 35.4783 49.0679 36.183 51.4591C36.3931 52.1771 35.9865 52.9291 35.2683 53.1458C34.55 53.3558 33.7979 52.9493 33.5811 52.2313C32.6324 49.0205 33.3642 45.3018 35.4986 42.5245C37.4976 39.9234 40.6146 38.1758 44.05 37.7287C45.7644 37.5052 47.3568 37.6203 48.7798 38.0742C51.5308 38.948 53.916 41.2645 55.1695 44.2586C55.9962 46.2365 56.3757 48.5261 56.3012 51.0798C60.3803 50.5582 64.5069 50.3753 68.6132 50.5378C68.7758 46.311 68.5455 42.0503 67.9221 37.8709C67.8476 37.3697 68.0576 36.8684 68.4709 36.5703C68.8843 36.2723 69.4264 36.2317 69.8736 36.462C73.3633 38.2367 76.7512 39.7473 79.8885 38.7922C81.1218 38.4196 82.3008 37.6271 83.3037 36.9158C84.1643 36.3062 85.0519 35.6424 85.5872 34.8227C86.2784 33.7593 86.4749 32.2825 86.6443 30.982C86.956 28.6247 87.2745 26.1929 86.6917 23.9712C86.4207 22.9483 85.9464 21.9255 85.2688 20.9162C83.9136 18.8976 82.1314 17.5632 80.2477 17.15C76.7241 16.3846 73.1396 18.8841 70.9578 21.4785C70.5918 21.912 70.0023 22.0745 69.467 21.8849C68.9317 21.6952 68.5726 21.194 68.5658 20.6317C68.4641 14.7047 68.0847 8.72341 67.4477 2.81669C62.3589 2.67444 57.2159 2.70152 52.1271 2.88441C52.7098 4.79461 52.7302 6.92835 52.1474 8.98758C51.3614 11.7851 49.5522 14.1221 47.2009 15.4023C44.8428 16.6826 41.9021 16.9264 39.1239 16.0729C36.3457 15.2194 34.0486 13.3567 32.8221 10.9723C31.616 8.62183 31.3788 5.98002 31.1687 3.64985C31.101 2.90473 31.6499 2.24765 32.3952 2.17991C33.1474 2.12572 33.7979 2.66089 33.8657 3.406C34.0622 5.59393 34.2654 7.84957 35.2344 9.73268C36.1288 11.4735 37.8364 12.8419 39.9234 13.4786C42.0037 14.1221 44.1855 13.9527 45.9066 13.0179C47.6278 12.0832 48.9492 10.3424 49.5455 8.24248C50.135 6.14261 49.9181 3.9682 48.9424 2.27475C48.7052 1.86833 48.6984 1.36032 48.9288 0.947122C49.1592 0.533922 49.5861 0.269719 50.0537 0.242624C56.2402 -0.0351008 62.5215 -0.0756905 68.7148 0.127523C69.3857 0.147844 69.9413 0.662663 70.0159 1.32649C70.6257 6.6439 71.0255 12.0358 71.2017 17.4006C74.2238 14.874 77.6728 13.7969 80.8304 14.4811C83.4053 15.0433 85.7837 16.7842 87.5252 19.3853C88.3654 20.6384 88.9685 21.9458 89.314 23.2532C90.0323 25.9898 89.6596 28.8144 89.3344 31.3071C89.1379 32.8177 88.8871 34.7008 87.864 36.2723C87.0712 37.4916 85.9531 38.3383 84.8757 39.0969C83.6967 39.9301 82.3008 40.8649 80.6814 41.3527C77.3882 42.3484 74.095 41.3797 70.9374 39.9504C71.3846 43.947 71.493 47.9909 71.2626 52.001C71.2152 52.7461 70.5715 53.3083 69.8329 53.2745C64.9067 52.99 59.9331 53.2203 55.0543 53.9519C54.9865 53.9586 54.9188 53.9654 54.8511 53.9654L54.8579 53.9992Z" fill="#f8fafc"/>
</svg>
