<svg width="70" height="74" viewBox="0 0 70 74" fill="none" xmlns="http://www.w3.org/2000/svg">
<path d="M23.7287 73.0116C23.5322 73.0116 23.3357 72.9709 23.1528 72.8829C22.6446 72.6458 22.3396 72.1242 22.3735 71.562C22.9563 62.851 23.6881 54.1128 24.5487 45.3746C16.3903 41.6016 8.11672 37.5983 0.595306 32.518C0.114207 32.1929 -0.102625 31.6036 0.0464481 31.0413C0.195521 30.4859 0.690164 30.0794 1.26613 30.0456C9.65487 29.4901 18.0707 28.7518 26.473 27.8441C27.5504 18.9095 28.7633 9.99523 30.1253 1.14869C30.2202 0.525507 30.7284 0.0513421 31.3586 0.00392574C31.982 -0.0434906 32.5647 0.342624 32.7544 0.945489C35.4649 9.44657 38.6225 17.785 42.207 25.9339C50.3586 24.8365 58.4696 23.5699 66.5263 22.1542C66.5805 22.0932 66.6415 22.0322 66.6957 21.9712C67.1971 21.4158 68.0576 21.3752 68.6133 21.8832C68.7962 22.0458 68.9182 22.249 68.986 22.4657C69.1147 22.6351 69.2028 22.8315 69.2435 23.055C69.3722 23.7934 68.8843 24.4979 68.1458 24.6266C68.0712 24.6401 67.9898 24.6536 67.9085 24.6672C63.0569 30.0252 58.185 35.6949 53.4688 41.1952C52.6557 42.1368 51.8494 43.0851 51.0295 44.0334C54.6343 50.7259 58.544 57.2626 62.7452 63.6164C63.1111 64.1718 63.023 64.9169 62.5284 65.364C62.0337 65.8111 61.2816 65.8382 60.7666 65.4114C55.1696 60.8865 48.9221 57.1881 42.4713 53.8825C36.7117 60.392 30.7962 66.7797 24.6571 72.6526C24.3996 72.8964 24.0608 73.0251 23.722 73.0251L23.7287 73.0116ZM27.1574 46.5736C26.4527 53.7876 25.8361 61.0085 25.3211 68.209C30.3286 63.2574 35.2006 57.9738 39.9709 52.5955C36.0408 50.6514 32.0633 48.8224 28.1264 47.0138C27.8011 46.8648 27.4759 46.7158 27.1574 46.5668V46.5736ZM44.3279 51.7623C48.5155 53.9299 52.6286 56.2736 56.5384 58.9086C53.9499 54.7427 51.4902 50.5091 49.1525 46.2078C47.5533 48.057 45.9474 49.913 44.3279 51.7623ZM27.442 43.7218C28.0518 43.9995 28.6549 44.2772 29.258 44.555C33.4321 46.4719 37.6603 48.4093 41.8276 50.4956C43.8265 48.2196 45.8051 45.9301 47.7701 43.6541C45.2088 38.8108 42.7965 33.8795 40.5469 28.8805C36.671 29.3885 32.7883 29.8627 28.8989 30.2962C28.3703 34.7669 27.8825 39.2443 27.4285 43.7218H27.442ZM5.51472 32.4638C11.6741 36.2639 18.2808 39.4746 24.84 42.5228C25.2466 38.5466 25.687 34.5704 26.1478 30.601C19.2701 31.3394 12.3856 31.9625 5.51472 32.4638ZM43.3657 28.5012C45.3443 32.8702 47.4517 37.1851 49.681 41.439C50.2638 40.7617 50.8465 40.0843 51.4224 39.4069C55.4068 34.7669 59.4995 30.0049 63.599 25.3988C56.8839 26.5435 50.135 27.5799 43.359 28.5012H43.3657ZM31.9684 7.15702C30.9791 13.9172 30.0711 20.7181 29.2445 27.5257C32.6393 27.1396 36.0273 26.7264 39.4153 26.2861C36.6778 20.0136 34.191 13.6327 31.9684 7.15024V7.15702Z" fill="#1E293B"/>
</svg>
