<svg width="231" height="21" viewBox="0 0 231 21" fill="none" xmlns="http://www.w3.org/2000/svg">
<path d="M19.2936 20.6877C18.5888 20.6877 17.8841 20.6335 17.1726 20.5251C9.7461 19.3465 4.63689 12.2882 0.422192 5.77185C0.0156295 5.14188 0.198649 4.30193 0.828821 3.90228C1.45899 3.49585 2.29923 3.67873 2.69902 4.30869C6.58847 10.3373 11.2707 16.8537 17.5928 17.8562C22.3224 18.6081 26.9776 16.1763 32.1409 13.1756L44.6359 5.90051C46.9262 4.56607 49.779 2.90651 52.8959 2.9878C57.3275 3.09618 60.5122 6.38146 63.5818 9.55836C65.723 11.7666 67.9388 14.0562 70.4527 15.0858C75.1688 17.0095 80.9081 14.7335 88.0162 8.11554C91.9463 4.45771 96.8386 -0.101036 102.605 0.962446C106.298 1.6466 108.988 4.42385 111.577 7.11304C112.64 8.21039 113.738 9.34838 114.863 10.2832C120.182 14.6997 127.697 15.3635 133.551 11.9292C135.442 10.8183 137.136 9.34839 138.925 7.7972C140.124 6.75403 141.371 5.67697 142.679 4.7151C146.887 1.63303 151.122 0.623747 154.618 1.88367C157.911 3.06908 160.079 5.9547 162.173 8.73872C163.766 10.8589 165.27 12.8572 167.188 14.1036C171.755 17.0705 177.528 14.7945 179.798 13.6768C182.007 12.593 184.155 11.1637 186.228 9.77512C188.234 8.44069 190.307 7.05885 192.496 5.93441C204.91 -0.426159 220.427 2.54753 230.232 13.1756C230.74 13.7242 230.706 14.5845 230.151 15.0925C229.595 15.6005 228.741 15.5667 228.233 15.0112C219.255 5.27733 205.066 2.53398 193.723 8.34587C191.669 9.3958 189.664 10.737 187.719 12.0308C185.571 13.4601 183.348 14.9435 180.977 16.1086C175.298 18.8994 169.729 18.9942 165.697 16.3728C163.379 14.869 161.658 12.5795 159.991 10.3644C158.053 7.78363 156.217 5.33829 153.683 4.42383C150.153 3.15036 146.263 5.41958 144.264 6.88949C143.044 7.78363 141.845 8.82681 140.68 9.83611C138.877 11.4008 137.007 13.0265 134.9 14.2594C128.063 18.2694 119.301 17.5108 113.108 12.3627C111.868 11.3331 110.723 10.1409 109.605 8.98938C107.199 6.49664 104.929 4.14611 102.09 3.62453C97.6653 2.81168 93.3286 6.84884 89.839 10.0935C81.8771 17.504 75.1959 19.9561 69.4024 17.5853C66.3599 16.3389 63.9409 13.8462 61.6099 11.4347C58.7911 8.52198 56.1281 5.77181 52.8011 5.69052C52.7536 5.69052 52.7062 5.69052 52.6588 5.69052C50.3549 5.69052 48.0308 7.04528 45.9708 8.23747L33.4758 15.5125C29.6473 17.7411 24.5721 20.6944 19.2664 20.6944L19.2936 20.6877Z" fill="#F8FAFC"/>
</svg>
